Gilda Radner, one of SNLΓÇÖs original cast members is considered to be one of the most gifted comediennes of all time. RadnerΓÇÖs sweet and loveable appeal quickly turned her into one of AmericaΓÇÖs favorite women. See all of her fantastic performances as some of the funniest characters ever seen on television, including Emily Litella, Roseanne Roseannadanna, Candy Slice, Baba Wawa and the nerdy Lisa Loopner. 

INFO: 
Format : MPEG-4
Format profile : Base Media
Codec ID : isom
File size : 1.23 GiB
Duration : 1h 32mn
Overall bit rate mode : Variable
Overall bit rate : 1 906 Kbps
Writing application : Lavf52.104.0

Video
ID : 1
Format : MPEG-4 Visual
Format profile : Simple@L3
Format settings, BVOP : No
Format settings, QPel : No
Format settings, GMC : No warppoints
Format settings, Matrix : Default (H.263)
Codec ID : 20
Duration : 1h 32mn
Bit rate : 1 773 Kbps
Width : 720 pixels
Height : 480 pixels
Display aspect ratio : 4:3
Original display aspect ratio : 4:3
Frame rate mode : Constant
Frame rate : 29.970 fps
Standard : NTSC
Color space : YUV
Chroma subsampling : 4:2:0
Bit depth : 8 bits
Scan type : Progressive
Compression mode : Lossy
Bits/(Pixel*Frame) : 0.171
Stream size : 1.14 GiB (93%)
Writing library : XviD 1.2.1 (UTC 2008-12-04)

Audio
ID : 2
Format : AAC
Format/Info : Advanced Audio Codec
Format profile : LC
Codec ID : 40
Duration : 1h 32mn
Bit rate mode : Variable
Bit rate : 128 Kbps
Channel(s) : 2 channels
Channel positions : Front: L R
Sampling rate : 44.1 KHz
Compression mode : Lossy
Stream size : 84.3 MiB (7%)

IMDb- http://www.imdb.com/title/tt1093390/ 

SIZE: 1.22GB
